<svg width="568" height="215" viewBox="0 0 568 215" fill="none" xmlns="http://www.w3.org/2000/svg">
<path d="M57.024 25.656C25.632 25.656 6.48 50.136 6.48 76.344C6.48 104.568 28.08 125.16 55.296 125.16C82.656 125.16 105.552 105.72 105.552 74.184C105.552 44.952 82.512 25.656 57.168 25.656H57.024ZM54.144 31.128C73.44 31.128 89.712 47.4 89.712 78.072C89.712 106.296 74.88 119.832 58.464 119.832C37.584 119.832 22.176 99.672 22.176 72.456C22.176 44.952 37.584 31.128 54 31.128H54.144ZM116.864 27.816V32.136C128.24 33 129.536 33.72 129.536 46.248V104.568C129.536 117.096 128.24 117.96 115.424 118.968V123H151.424C169.568 123 184.544 119.256 195.632 110.904C207.008 102.408 214.064 89.304 214.064 71.88C214.064 58.056 208.736 47.4 201.392 40.488C192.176 31.704 178.208 27.816 159.344 27.816H116.864ZM142.784 43.224C142.784 37.464 143.216 35.736 144.656 34.728C146.24 33.72 149.984 32.856 156.464 32.856C166.544 32.856 175.184 34.872 181.808 39.192C193.04 46.104 198.8 58.776 198.8 74.04C198.8 97.224 185.84 117.528 158.48 117.528C147.68 117.528 142.784 114.792 142.784 103.56V43.224ZM296.13 99.096C293.97 104.856 291.09 109.896 288.642 112.92C285.33 116.664 281.01 117.816 270.066 117.816C263.01 117.816 257.826 117.672 254.946 115.944C252.21 114.216 251.346 111.048 251.346 104.136V76.776H265.17C277.986 76.776 278.994 77.64 281.01 88.152H285.33V59.928H281.01C279.138 69.72 278.274 70.872 265.026 70.872H251.346V37.752C251.346 33.432 251.634 33.144 256.386 33.144H267.33C277.842 33.144 281.73 34.152 283.89 37.176C285.906 40.488 287.346 43.8 288.786 49.704L293.25 49.128C292.674 41.496 291.954 31.56 291.81 27.816H225.57V32.136C236.946 33 238.098 33.576 238.098 46.68V104.568C238.098 116.52 236.946 117.672 223.41 118.824V123H295.41C296.706 118.392 299.586 104.712 300.45 99.672L296.13 99.096ZM377.337 98.952C374.889 105.72 372.153 110.472 369.561 113.352C366.105 116.952 361.065 117.816 353.145 117.816C346.953 117.816 342.057 117.528 339.177 115.944C336.441 114.504 335.721 111.624 335.721 103.848V46.248C335.721 33.576 337.017 32.856 348.825 32.136V27.816H309.513V32.136C321.465 33 322.473 33.72 322.473 46.248V104.28C322.473 116.808 321.321 117.816 308.937 118.824V123H376.185C377.769 118.536 380.793 104.424 381.657 99.672L377.337 98.952ZM457.072 98.952C454.624 105.72 451.888 110.472 449.296 113.352C445.84 116.952 440.8 117.816 432.88 117.816C426.688 117.816 421.792 117.528 418.912 115.944C416.176 114.504 415.456 111.624 415.456 103.848V46.248C415.456 33.576 416.752 32.856 428.56 32.136V27.816H389.248V32.136C401.2 33 402.208 33.72 402.208 46.248V104.28C402.208 116.808 401.056 117.816 388.672 118.824V123H455.92C457.504 118.536 460.528 104.424 461.392 99.672L457.072 98.952ZM564.849 123V118.824C555.201 117.816 553.185 116.376 548.577 103.704C539.073 78.072 529.281 51.144 519.921 25.656L515.025 26.952L484.353 103.56C479.025 116.376 477.009 117.384 467.505 118.824V123H500.049V118.824C488.673 117.672 487.521 116.088 490.833 107.016C492.705 101.112 494.721 95.208 497.025 88.44H528.705C531.873 97.224 534.609 104.856 536.481 110.616C538.497 116.232 537.201 117.528 527.841 118.824V123H564.849ZM526.401 82.248H499.617C503.937 70.296 508.401 57.624 513.297 45.384H513.585L526.401 82.248Z" fill="#111111"/>
<path d="M116.196 143.052V145.092C121.364 145.432 121.908 145.704 121.908 151.824V179.296C121.908 185.008 121.364 185.552 115.788 186.096V188H135.032V186.096C128.708 185.552 128.096 185.212 128.096 179.364V168.62L133.264 169.98C134.08 170.048 135.372 170.048 136.46 169.912C143.328 169.096 150.06 164.744 150.06 155.7C150.06 151.212 148.292 147.948 145.504 145.908C142.716 143.868 138.772 143.052 133.808 143.052H116.196ZM128.096 149.376C128.096 147.404 128.3 146.588 128.844 146.18C129.32 145.704 130.748 145.364 132.652 145.364C138.228 145.364 143.056 148.424 143.056 155.972C143.056 164.812 137.48 167.124 133.06 167.124C130.884 167.124 128.98 166.648 128.096 166.308V149.376ZM188.625 176.712C187.605 179.432 186.245 181.812 185.089 183.24C183.525 185.008 181.485 185.552 176.317 185.552C172.985 185.552 170.537 185.484 169.177 184.668C167.885 183.852 167.477 182.356 167.477 179.092V166.172H174.005C180.057 166.172 180.533 166.58 181.485 171.544H183.525V158.216H181.485C180.601 162.84 180.193 163.384 173.937 163.384H167.477V147.744C167.477 145.704 167.613 145.568 169.857 145.568H175.025C179.989 145.568 181.825 146.044 182.845 147.472C183.797 149.036 184.477 150.6 185.157 153.388L187.264 153.116C186.993 149.512 186.652 144.82 186.585 143.052H155.305V145.092C160.677 145.5 161.221 145.772 161.221 151.96V179.296C161.221 184.94 160.677 185.484 154.285 186.028V188H188.285C188.897 185.824 190.257 179.364 190.665 176.984L188.625 176.712ZM236.492 186.776C234.928 186.3 233.364 185.484 231.528 183.512C229.828 181.812 228.468 179.908 225.884 176.236C223.844 173.176 220.92 168.552 219.696 166.24C224.796 164.064 228.604 160.46 228.604 154.544C228.604 150.328 226.768 147.2 223.912 145.432C221.26 143.664 217.928 143.052 212.624 143.052H195.08V145.092C200.52 145.5 201.064 145.84 201.064 151.688V179.296C201.064 185.076 200.452 185.552 194.808 186.028V188H213.44V186.028C207.796 185.552 207.184 185.076 207.184 179.296V168.416H209.292C212.828 168.416 214.052 169.232 215.276 171.204C217.316 174.536 219.764 178.82 222.212 182.22C225.34 186.708 228.264 188.204 233.704 188.476C234.52 188.544 235.336 188.544 236.22 188.544L236.492 186.776ZM207.184 166.104V149.104C207.184 147.2 207.388 146.452 207.932 146.112C208.476 145.704 209.7 145.432 211.672 145.432C216.84 145.432 221.736 148.152 221.736 155.564C221.736 159.372 220.648 162.024 217.996 164.132C216.228 165.56 213.916 166.104 210.38 166.104H207.184ZM270.465 153.32C270.125 149.988 269.785 145.568 269.717 143.052H238.777V145.092C244.149 145.5 244.693 145.84 244.693 151.892V179.16C244.693 185.144 244.149 185.552 238.573 186.028V188H257.885V186.028C251.493 185.552 250.949 185.144 250.949 179.16V166.784H258.021C264.345 166.784 264.753 167.668 265.569 172.428H267.677V158.964H265.569C264.685 163.452 264.345 164.064 258.021 164.064H250.949V147.744C250.949 145.704 251.153 145.568 253.261 145.568H258.429C263.665 145.568 265.161 146.112 266.385 148.016C267.337 149.512 267.745 150.872 268.357 153.66L270.465 153.32ZM323.226 143.052H306.498V145.092C311.394 145.432 312.958 146.316 313.298 148.968C313.638 151.076 313.842 154 313.842 160.188V165.492C313.842 176.984 310.51 185.076 300.65 185.076C292.082 185.076 287.526 178.82 287.526 167.6V152.164C287.526 145.84 288.07 145.432 293.51 145.092V143.052H275.15V145.092C280.658 145.568 281.27 145.84 281.27 152.164V169.028C281.27 177.256 283.242 182.424 287.458 185.552C290.586 188 294.666 188.952 298.814 188.952C303.506 188.952 308.198 187.524 311.394 184.124C315.474 179.908 316.766 173.924 316.766 165.832V160.256C316.766 154 316.97 151.076 317.174 149.172C317.446 146.316 319.078 145.364 323.226 145.092V143.052ZM383.824 188V186.028C377.84 185.416 377.636 185.076 377.432 177.732L376.752 152.776C376.548 145.84 377.024 145.636 383.076 145.092V143.052H370.972L354.992 177.324L339.148 143.052H327.452V145.092C333.776 145.704 334.184 146.044 333.504 155.02L332.552 169.164C332.008 176.372 331.6 179.432 331.192 181.88C330.716 184.668 329.288 185.484 325.276 186.028V188H341.596V186.028C336.972 185.484 335.34 185.008 335.204 181.744C335.136 179.024 335.136 175.964 335.408 170.32L336.428 150.804H336.564L352.136 187.592H353.632L370.564 149.852H370.836L371.04 177.8C371.108 185.076 370.904 185.416 365.26 186.028V188H383.824ZM422.242 176.712C421.222 179.432 419.862 181.812 418.706 183.24C417.142 185.008 415.102 185.552 409.934 185.552C406.602 185.552 404.154 185.484 402.794 184.668C401.502 183.852 401.094 182.356 401.094 179.092V166.172H407.622C413.674 166.172 414.15 166.58 415.102 171.544H417.142V158.216H415.102C414.218 162.84 413.81 163.384 407.554 163.384H401.094V147.744C401.094 145.704 401.23 145.568 403.474 145.568H408.642C413.606 145.568 415.442 146.044 416.462 147.472C417.414 149.036 418.094 150.6 418.774 153.388L420.882 153.116C420.61 149.512 420.27 144.82 420.202 143.052H388.922V145.092C394.294 145.5 394.838 145.772 394.838 151.96V179.296C394.838 184.94 394.294 185.484 387.902 186.028V188H421.902C422.514 185.824 423.874 179.364 424.282 176.984L422.242 176.712ZM454.537 153.252C453.993 148.832 453.585 146.112 453.313 143.664C450.729 142.848 447.737 142.032 444.405 142.032C435.361 142.032 429.921 147.676 429.921 154.476C429.921 162.16 436.721 165.628 441.481 168.076C446.785 170.864 450.457 173.312 450.457 178.344C450.457 183.308 447.465 186.572 442.297 186.572C435.089 186.572 431.825 179.432 430.737 175.08L428.697 175.624C429.105 179.024 430.057 185.076 430.533 186.572C431.213 186.912 432.233 187.388 434.069 187.932C435.769 188.476 438.081 189.02 440.937 189.02C450.321 189.02 456.577 183.172 456.577 175.828C456.577 168.212 450.185 164.948 444.473 162.024C438.897 159.236 435.633 156.856 435.633 151.96C435.633 148.152 438.081 144.48 443.317 144.48C449.301 144.48 451.273 149.376 452.497 153.728L454.537 153.252Z" fill="#111111"/>
</svg>
